<?xml version="1.0" encoding="utf-8"?>
<!-- Uploaded to: SVG Repo, www.svgrepo.com, Generator: SVG Repo Mixer Tools -->
<svg width="800px" height="800px" viewBox="0 0 1024 1024" class="icon"  version="1.1" xmlns="http://www.w3.org/2000/svg"><path d="M512 181.9c7.6 0 15.2 0.4 22.7 1.1v-48c0-4.8-4-8.8-8.8-8.8H498c-4.8 0-8.8 4-8.8 8.8v48c7.6-0.7 15.2-1.1 22.8-1.1zM578.5 844.6h-133c6.9 30.4 34.1 53.2 66.5 53.2s59.7-22.8 66.5-53.2z" fill="#FFBC00" /><path d="M595.2 814.6H428.8c-8.3 0-15 6.7-15 15 0 54.1 44 98.2 98.2 98.2s98.2-44 98.2-98.2c0-8.3-6.7-15-15-15z m-149.7 30h133c-6.9 30.4-34.1 53.2-66.5 53.2s-59.7-22.8-66.5-53.2z" fill="#46287C" /><path d="M700.4 454.6l-188.1 188h78.6l109.5-109.4zM469.9 642.6l230.5-230.5v-31c-0.4-93.3-84.7-169.2-188.4-169.2-103.9 0-188.4 76.2-188.4 169.8v260.9c0.8 0 1.6-0.1 2.4-0.1h143.9zM407.1 311c19.1 0 34.7 15.5 34.7 34.7 0 19.1-15.5 34.7-34.7 34.7s-34.7-15.5-34.7-34.7c0-19.2 15.5-34.7 34.7-34.7zM633.4 642.6H698c0.8 0 1.6 0 2.4 0.1v-67.1l-67 67zM698 672.6H326c-15.5 0-45.6 15.6-67.3 40.7-17.8 20.7-20.1 35.6-18.5 39.3 0.3 0.7 2.7 1.5 6.4 1.5h530.7c3.7 0 6-0.8 6.4-1.5 1.7-3.7-0.6-18.6-18.5-39.3-21.6-25.1-51.7-40.7-67.2-40.7z" fill="#FFBC00" /><path d="M788 693.8c-16.2-18.9-37.5-34.4-57.6-43.2V381.8c0-53.6-22.9-104-64.5-141.8-28.4-25.8-63.2-43.6-101.2-52.2V135c0-21.4-17.4-38.8-38.8-38.8H498c-21.4 0-38.8 17.4-38.8 38.8v52.8c-37.9 8.6-72.7 26.4-101.2 52.2-41.6 37.8-64.5 88.1-64.5 141.8v268.8c-20.2 8.8-41.4 24.4-57.6 43.2-22.8 26.4-31.4 53.1-23 71.4 3.2 7.1 11.9 19 33.6 19h530.7c21.7 0 30.4-11.9 33.6-19 8.6-18.3 0-45-22.8-71.4z m-4.3 58.9c-0.3 0.7-2.7 1.5-6.4 1.5H246.6c-3.7 0-6-0.8-6.4-1.5-1.7-3.7 0.6-18.6 18.5-39.3 21.7-25.2 51.8-40.7 67.3-40.7h372c15.5 0 45.6 15.6 67.3 40.7 17.8 20.6 20.1 35.6 18.4 39.3zM512.3 642.6l188.1-188.1v78.6L590.9 642.6h-78.6z m185.7 0h-64.6l67-67v67.1c-0.8 0-1.6-0.1-2.4-0.1zM498.1 126.2H526c4.8 0 8.8 4 8.8 8.8v48c-7.5-0.7-15.1-1.1-22.7-1.1s-15.2 0.4-22.7 1.1v-48c-0.1-4.7 3.9-8.8 8.7-8.8zM323.6 381.7c0-93.6 84.5-169.8 188.4-169.8 103.7 0 188 75.9 188.4 169.2v31L469.9 642.6H326c-0.8 0-1.6 0-2.4 0.1v-261z" fill="#46287C" /><path d="M407.1 345.7m-34.7 0a34.7 34.7 0 1 0 69.4 0 34.7 34.7 0 1 0-69.4 0Z" fill="#FFFFFF" /></svg>