<?xml version="1.0" encoding="utf-8"?>
<!-- Uploaded to: SVG Repo, www.svgrepo.com, Generator: SVG Repo Mixer Tools -->
<svg version="1.1" id="Uploaded to svgrepo.com" xmlns="http://www.w3.org/2000/svg" xmlns:xlink="http://www.w3.org/1999/xlink" 
	 width="800px" height="800px" viewBox="0 0 32 32" xml:space="preserve">
<style type="text/css">
	.hatch_een{fill:#265AA5;}
	.hatch_twee{fill:#FFC5BB;}
	.st0{fill:#333B3A;}
</style>
<g>
	<path class="hatch_twee" d="M8.414,1L5,4.414V3l2-2H8.414z M12.414,1H11L5,7h1.414L12.414,1z M7,18H6l-1,1v1.414l2.707-2.707
		C7.526,17.888,7.276,18,7,18z M10.218,22.377l1.901-2.387c0.013-0.016,0.026-0.031,0.039-0.047c0.383-0.425,0.904-0.71,1.468-0.803
		l0.775-0.128l0.386-0.386l0.054-0.267c-0.223-0.194-0.384-0.431-0.521-0.679L8,24c0,0.552-0.448,1-1,1l-2,2v1.414l5.07-5.07
		C9.95,23.018,9.999,22.652,10.218,22.377z M8,9.414L16.414,1H15L8,8V9.414z M17.057,8c0.132,0,0.25,0.003,0.35,0.007L24.414,1H23
		l-7.101,7.101C16.233,8.036,16.613,8,17.057,8z M8,16v1c0,0.276-0.112,0.526-0.293,0.707l5.283-5.283
		c0.011-0.047,0.011-0.096,0.025-0.141c-0.171-0.18-0.277-0.423-0.277-0.691c0-0.142,0.029-0.274,0.072-0.402L8,16z M12,24l-7,7
		h1.414l7-7H12z M7.874,21.54l5.735-5.735c-0.226-0.24-0.376-0.575-0.481-0.933L7,21C7.384,21,7.706,21.223,7.874,21.54z M7,14
		c0.122,0,0.236,0.029,0.345,0.07L20.414,1H19L6,14H7z M5,11v1.414L6.414,11H5z M24.075,21.339L28,17.414V16l-4.512,4.512
		L24.075,21.339z M21.793,15.621L28,9.414V8l-5.663,5.663C22.298,14.296,22.164,15.091,21.793,15.621z M21.64,19.141
		c0.17,0.028,0.334,0.079,0.493,0.14L28,13.414V12l-7.03,7.03L21.64,19.141z M27,1l-7.213,7.213
		c0.209,0.069,0.401,0.149,0.558,0.254c0.144,0.096,0.262,0.17,0.369,0.233L28,1.414V1H27z M21.902,10.379
		c0.207,0.195,0.374,0.411,0.486,0.647L28,5.414V4l-5.953,5.953C22.029,10.1,21.978,10.246,21.902,10.379z M20,24l-7,7h1.414l7-7H20
		z M26.414,31L28,29.414V28l-3,3H26.414z M16,24l-7,7h1.414l7-7H16z M24.885,23.466C24.712,23.795,24.371,24,24,24l-7,7h1.414
		L28,21.414V20l-3.007,3.007C24.992,23.164,24.961,23.322,24.885,23.466z M22.414,31L28,25.414V24l-7,7H22.414z"/>
	<path class="hatch_een" d="M18.209,9c0.503,0,1.209,0.049,1.58,0.298c0.882,0.591,1.21,0.637,1.21,0.637s-0.431,0.555-0.579,0.555
		c-0.005,0,1.107,0.669,1.107,1.103h-0.77c0,0,0.572,0.722,0.594,1.296c0.02,0.517-0.032,2.36-0.693,2.36
		c-0.07,0-0.147-0.021-0.231-0.066c0,0,0.198,2.273-1.122,2.677l0.396,1.976l1.776,0.293c0.342,0.056,0.656,0.228,0.888,0.485L24,23
		H11l1.901-2.387c0.232-0.258,0.545-0.429,0.888-0.485l1.776-0.293l0.396-1.976c-1.32-0.404-1.122-2.677-1.122-2.677
		c-0.084,0.045-0.161,0.066-0.231,0.066c-0.661,0-0.713-1.843-0.693-2.36c0.022-0.574,0.594-1.296,0.594-1.296h-0.77
		c0-0.433,1.113-1.103,1.107-1.103c-0.149,0-0.579-0.555-0.579-0.555s0.328-0.047,1.21-0.637C15.848,9.049,16.554,9,17.057,9H18.209
		z M18.209,8c-0.255,0-0.464,0.011-0.576,0.019C17.521,8.011,17.311,8,17.057,8c-0.968,0-1.667,0.153-2.136,0.467
		c-0.472,0.316-0.736,0.438-0.835,0.478c-0.364,0.007-0.626,0.214-0.793,0.546c-0.143,0.284-0.085,0.612,0.072,0.889
		c-0.361,0.341-0.625,0.736-0.625,1.213c0,0.268,0.105,0.511,0.277,0.691c-0.055,0.183-0.093,0.375-0.1,0.567
		c-0.019,0.505-0.026,2.21,0.703,2.968c0.071,0.073,0.147,0.138,0.229,0.194c0.061,0.734,0.284,1.728,0.994,2.349l-0.12,0.601
		l-1.094,0.18c-0.564,0.093-1.086,0.378-1.468,0.803c-0.014,0.015-1.94,2.434-1.94,2.434c-0.239,0.3-0.285,0.711-0.118,1.057
		S10.616,24,11,24h13c0.371,0,0.712-0.205,0.885-0.534c0.173-0.328,0.15-0.725-0.059-1.031c0,0-1.687-2.459-1.717-2.492
		c-0.383-0.425-0.904-0.71-1.468-0.803l-1.094-0.18l-0.12-0.601c0.71-0.62,0.933-1.615,0.994-2.349
		c0.081-0.056,0.158-0.12,0.229-0.194c0.729-0.757,0.722-2.463,0.703-2.968c-0.007-0.192-0.045-0.384-0.1-0.567
		c0.171-0.18,0.277-0.423,0.277-0.691c0-0.476-0.264-0.871-0.625-1.213c0.157-0.277,0.215-0.604,0.072-0.888
		c-0.167-0.332-0.429-0.539-0.793-0.546c-0.099-0.04-0.364-0.163-0.835-0.478C19.876,8.153,19.178,8,18.209,8L18.209,8z M28,0H5
		C4.448,0,4,0.448,4,1v6H2C1.448,7,1,7.448,1,8v2c0,0.552,0.448,1,1,1h2v3H2c-0.552,0-1,0.448-1,1v2c0,0.552,0.448,1,1,1h2v3H2
		c-0.552,0-1,0.448-1,1v2c0,0.552,0.448,1,1,1h2v6c0,0.552,0.448,1,1,1h23c0.552,0,1-0.448,1-1V1C29,0.448,28.552,0,28,0z M2,8h5v2
		H2V8z M2,15h5v2H2V15z M2,24v-2h5v2H2z M28,31H5v-6h2c0.552,0,1-0.448,1-1v-2c0-0.552-0.448-1-1-1H5v-3h2c0.552,0,1-0.448,1-1v-2
		c0-0.552-0.448-1-1-1H5v-3h2c0.552,0,1-0.448,1-1V8c0-0.552-0.448-1-1-1H5V1h23V31z"/>
</g>
</svg>